<svg width="507" height="152" viewBox="0 0 507 152" fill="none" xmlns="http://www.w3.org/2000/svg">
<path opacity="0.2" d="M506.713 132.261V40.9594C506.713 24.9626 493.922 11.9047 477.935 11.5935C395.643 9.99156 158.591 6.29778 54.276 14.4575C28.2505 16.4917 8.1914 38.2971 8.42176 64.4186C8.53695 77.8453 10.1034 93.7902 14.4804 111.562C18.3563 127.294 32.3567 138.432 48.5456 138.79C121.422 140.409 334.014 145.359 487.069 151.191C497.798 151.6 506.713 143.008 506.713 132.261Z" fill="black"/>
<path d="M498.299 122.902V31.601C498.299 15.6042 485.508 2.54632 469.521 2.23514C387.229 0.633159 150.177 -3.06062 45.8618 5.09912C19.8363 7.13329 -0.222738 28.9387 0.00186778 55.0602C0.11705 68.4869 1.68353 84.4318 6.06047 102.203C9.93637 117.935 23.9368 129.074 40.1257 129.431C113.002 131.051 325.594 136.001 478.649 141.832C489.378 142.241 498.294 133.649 498.294 122.902H498.299Z" fill="#4D96FF"/>
<path d="M9.98816 54.0805C8.63476 67.2536 9.9824 80.5765 13.8813 93.231C15.1887 97.4723 21.8635 95.6628 20.5446 91.3928C16.807 79.2685 15.6033 66.7004 16.8991 54.0805C17.3541 49.6606 10.4374 49.6894 9.98816 54.0805Z" fill="white"/>
<path d="M24.3688 111.32C28.8148 111.32 28.8206 104.405 24.3688 104.405C19.917 104.405 19.917 111.32 24.3688 111.32Z" fill="white"/>
<path d="M229.716 12.2331C250.323 15.0336 271.073 16.3187 291.869 15.9441C296.309 15.8634 296.327 8.94842 291.869 9.02909C271.712 9.39213 251.532 8.27998 231.554 5.56583C229.688 5.31228 227.868 6.01531 227.303 7.98033C226.843 9.58807 227.868 11.9795 229.716 12.2331Z" fill="white"/>
<path d="M308.703 15.8577C313.149 15.8577 313.155 8.94263 308.703 8.94263C304.251 8.94263 304.251 15.8577 308.703 15.8577Z" fill="white"/>
<path d="M462.097 131.834C466.359 132.088 470.621 132.042 474.871 131.615C478.586 131.241 482.646 130.97 485.514 128.285C487.904 126.054 488.993 122.764 489.568 119.635C490.317 115.59 490.789 111.481 491.388 107.413C492.028 103.062 485.37 101.183 484.725 105.574C484.23 108.94 483.74 112.305 483.239 115.67C482.905 117.924 482.698 121.03 481.154 122.851C479.415 124.908 475.194 124.7 472.746 124.879C469.198 125.138 465.645 125.121 462.097 124.913C457.657 124.648 457.669 131.563 462.097 131.829V131.834Z" fill="white"/>
<path d="M488.751 98.2158C493.197 98.2158 493.203 91.3008 488.751 91.3008C484.299 91.3008 484.299 98.2158 488.751 98.2158Z" fill="white"/>
<path d="M416.566 33.8368C416.566 37.8936 413.294 41.1782 409.24 41.1782C405.186 41.1782 401.914 37.8936 401.914 33.8368C401.914 29.78 405.197 26.5068 409.24 26.5068C410.634 26.5068 411.941 26.8987 413.047 27.5787C412.39 28.1491 411.964 29.0078 411.964 29.9586C411.964 31.7104 413.381 33.1453 415.137 33.1453C415.615 33.1453 416.076 33.0358 416.491 32.8341C416.548 33.1568 416.571 33.491 416.571 33.8425L416.566 33.8368Z" fill="#272425"/>
<path d="M470.074 33.8368C470.074 37.8936 466.803 41.1782 462.748 41.1782C458.694 41.1782 455.422 37.8936 455.422 33.8368C455.422 29.78 458.705 26.5068 462.748 26.5068C464.142 26.5068 465.449 26.8987 466.555 27.5787C465.898 28.1491 465.472 29.0078 465.472 29.9586C465.472 31.7104 466.889 33.1453 468.645 33.1453C469.123 33.1453 469.584 33.0358 469.999 32.8341C470.056 33.1568 470.079 33.491 470.079 33.8425L470.074 33.8368Z" fill="#272425"/>
<path d="M440.892 53.1124C443.432 56.4431 443.3 60.8226 440.593 62.8914C437.886 64.9601 433.63 63.9286 431.09 60.5979C428.55 57.2672 428.683 52.8876 431.39 50.8189C434.096 48.7502 438.352 49.7816 440.892 53.1124Z" fill="#272425"/>
</svg>
