<svg width="60" height="80" viewBox="0 0 60 80" fill="none" xmlns="http://www.w3.org/2000/svg">
<path d="M56 52C56 67.464 43.464 80 28 80C12.536 80 0 67.464 0 52C0 36.536 12.536 24 28 24C43.464 24 56 36.536 56 52Z" fill="white"/>
<path d="M81 28C81 43.464 68.464 56 53 56C37.536 56 25 43.464 25 28C25 12.536 37.536 0 53 0C68.464 0 81 12.536 81 28Z" fill="white"/>
<path d="M81 47C81 62.464 68.464 75 53 75C37.536 75 25 62.464 25 47C25 31.536 37.536 19 53 19C68.464 19 81 31.536 81 47Z" fill="white"/>
<path d="M115 42C115 57.464 102.464 70 87 70C71.536 70 59 57.464 59 42C59 26.536 71.536 14 87 14C102.464 14 115 26.536 115 42Z" fill="white"/>
<path d="M137 51C137 61.4934 128.493 70 118 70C107.507 70 99 61.4934 99 51C99 40.5066 107.507 32 118 32C128.493 32 137 40.5066 137 51Z" fill="white"/>
<path d="M107 56C107 66.4934 98.4934 75 88 75C77.5066 75 69 66.4934 69 56C69 45.5066 77.5066 37 88 37C98.4934 37 107 45.5066 107 56Z" fill="white"/>
<path d="M156 61C156 71.4934 147.493 80 137 80C126.507 80 118 71.4934 118 61C118 50.5066 126.507 42 137 42C147.493 42 156 50.5066 156 61Z" fill="white"/>
<path d="M0 52H137V80H0V52Z" fill="white"/>
</svg>
